<svg width="28" height="27" viewBox="0 0 28 27" fill="none" xmlns="http://www.w3.org/2000/svg">
<path d="M23.6609 16.0312H12.5319L14.7121 13.8459L13.5206 12.6562L9.29541 16.875L13.5206 21.0938L14.7121 19.9041L12.5319 17.7188H23.6609V16.0312Z" fill="white"/>
<path d="M20.2805 11.8125V8.43751C20.2811 8.32647 20.2598 8.21639 20.2178 8.11359C20.1757 8.01079 20.1138 7.91729 20.0354 7.83845L14.1202 1.9322C14.0413 1.854 13.9476 1.79213 13.8447 1.75014C13.7417 1.70816 13.6315 1.68687 13.5203 1.68751H5.06994C4.62171 1.68751 4.19184 1.8653 3.87489 2.18177C3.55794 2.49824 3.37988 2.92746 3.37988 3.37501V23.625C3.37988 24.0726 3.55794 24.5018 3.87489 24.8183C4.19184 25.1347 4.62171 25.3125 5.06994 25.3125H18.5904C19.0387 25.3125 19.4685 25.1347 19.7855 24.8183C20.1024 24.5018 20.2805 24.0726 20.2805 23.625V21.9375H18.5904V23.625H5.06994V3.37501H11.8302V8.43751C11.8302 8.88507 12.0083 9.31429 12.3252 9.63076C12.6421 9.94722 13.072 10.125 13.5203 10.125H18.5904V11.8125H20.2805ZM13.5203 8.43751V3.72095L18.244 8.43751H13.5203Z" fill="white"/>
</svg>
