<svg width="24" height="24" viewBox="0 0 24 24" fill="none" xmlns="http://www.w3.org/2000/svg">
<path fill-rule="evenodd" clip-rule="evenodd" d="M12 1C5.925 1 1 5.925 1 12C1 18.075 5.925 23 12 23C18.075 23 23 18.075 23 12C23 5.925 18.075 1 12 1ZM10.892 8.935C11.122 8.482 11.292 8.267 11.433 8.155C11.539 8.071 11.683 8 12 8C12.625 8 13 8.47 13 8.978C13 9.256 12.946 9.394 12.798 9.57C12.591 9.816 12.208 10.115 11.45 10.616L11 10.912V13C11 13.2652 11.1054 13.5196 11.2929 13.7071C11.4804 13.8946 11.7348 14 12 14C12.2652 14 12.5196 13.8946 12.7071 13.7071C12.8946 13.5196 13 13.2652 13 13V11.983C13.542 11.609 13.997 11.251 14.327 10.859C14.804 10.293 15 9.689 15 8.978C15 7.508 13.867 6 12 6C11.316 6 10.711 6.176 10.192 6.587C9.708 6.97 9.378 7.497 9.108 8.032C9.04526 8.14947 9.00661 8.27828 8.99433 8.41089C8.98205 8.54349 8.99637 8.67722 9.03647 8.80421C9.07657 8.9312 9.14162 9.04891 9.22783 9.15042C9.31403 9.25193 9.41964 9.3352 9.53846 9.39534C9.65728 9.45548 9.78691 9.49128 9.91975 9.50065C10.0526 9.51001 10.186 9.49275 10.3121 9.44987C10.4381 9.40699 10.5544 9.33936 10.654 9.25094C10.7536 9.16253 10.8345 9.05511 10.892 8.935ZM13 16.5C13 16.2348 12.8946 15.9804 12.7071 15.7929C12.5196 15.6054 12.2652 15.5 12 15.5C11.7348 15.5 11.4804 15.6054 11.2929 15.7929C11.1054 15.9804 11 16.2348 11 16.5V17C11 17.2652 11.1054 17.5196 11.2929 17.7071C11.4804 17.8946 11.7348 18 12 18C12.2652 18 12.5196 17.8946 12.7071 17.7071C12.8946 17.5196 13 17.2652 13 17V16.5Z" fill="#0098B8"/>
</svg>
