<svg width="12" height="8" viewBox="0 0 12 8" fill="none" xmlns="http://www.w3.org/2000/svg">
<path d="M11 1.04969C10.9063 0.956568 10.7796 0.904297 10.6475 0.904297C10.5154 0.904297 10.3886 0.956568 10.295 1.04969L4.74497 6.57469L1.74497 3.57469C1.65347 3.4759 1.52647 3.4175 1.39191 3.41234C1.25736 3.40719 1.12626 3.45569 1.02747 3.54719C0.928675 3.63869 0.870276 3.76569 0.865119 3.90025C0.859962 4.03481 0.908468 4.1659 0.999968 4.26469L4.74497 7.99969L11 1.75969C11.0468 1.71321 11.084 1.65791 11.1094 1.59698C11.1348 1.53605 11.1479 1.4707 11.1479 1.40469C11.1479 1.33869 11.1348 1.27333 11.1094 1.21241C11.084 1.15148 11.0468 1.09618 11 1.04969Z" fill="#50B848"/>
</svg>
