<svg width="18" height="25" viewBox="0 0 18 25" fill="none" xmlns="http://www.w3.org/2000/svg">
<path d="M17.2807 10.8125V7.43751C17.2814 7.32647 17.2601 7.21639 17.218 7.11359C17.176 7.01079 17.114 6.91729 17.0357 6.83845L11.1205 0.932202C11.0415 0.854002 10.9479 0.792134 10.8449 0.750145C10.742 0.708156 10.6317 0.686872 10.5205 0.687514H2.07019C1.62196 0.687514 1.19208 0.865304 0.875135 1.18177C0.558186 1.49824 0.380127 1.92746 0.380127 2.37501V22.625C0.380127 23.0726 0.558186 23.5018 0.875135 23.8183C1.19208 24.1347 1.62196 24.3125 2.07019 24.3125H15.5907C16.0389 24.3125 16.4688 24.1347 16.7857 23.8183C17.1027 23.5018 17.2807 23.0726 17.2807 22.625V20.9375H15.5907V22.625H2.07019V2.37501H8.83044V7.43751C8.83044 7.88507 9.0085 8.31429 9.32545 8.63076C9.64239 8.94722 10.0723 9.12501 10.5205 9.12501H15.5907V10.8125H17.2807ZM10.5205 7.43751V2.72095L15.2442 7.43751H10.5205Z" fill="white"/>
</svg>
