<svg width="20" height="26" viewBox="0 0 20 26" fill="none" xmlns="http://www.w3.org/2000/svg">
<path d="M4.09375 9.71875H5.84375V11.4688H4.09375V9.71875ZM4.09375 14.9141V19.2891H7.59375V14.9141H5.84375V13.2188H4.09375V14.9141ZM6.28125 16.2266V17.9766H5.40625V16.2266H6.28125ZM5.84375 7.96875H7.59375V9.71875H5.84375V7.96875ZM4.09375 6.21875H5.84375V7.96875H4.09375V6.21875ZM5.84375 11.4688H7.59375V13.2188H5.84375V11.4688ZM5.84375 4.46875H7.59375V6.21875H5.84375V4.46875ZM19.368 6.89141L13.4836 1.00703C13.3195 0.842969 13.098 0.75 12.8656 0.75H1.25C0.766016 0.75 0.375 1.14102 0.375 1.625V24.375C0.375 24.859 0.766016 25.25 1.25 25.25H18.75C19.234 25.25 19.625 24.859 19.625 24.375V7.51211C19.625 7.27969 19.532 7.05547 19.368 6.89141ZM17.607 7.91406H12.4609V2.76797L17.607 7.91406ZM17.6562 23.2812H2.34375V2.71875H4.09375V4.46875H5.84375V2.71875H10.6016V8.625C10.6016 8.92958 10.7226 9.22169 10.9379 9.43707C11.1533 9.65244 11.4454 9.77344 11.75 9.77344H17.6562V23.2812Z" fill="#808285"/>
</svg>
